<?xml version="1.0" standalone="no"?>
<!DOCTYPE svg PUBLIC "-//W3C//DTD SVG 20010904//EN"
 "http://www.w3.org/TR/2001/REC-SVG-20010904/DTD/svg10.dtd">
<svg version="1.0" xmlns="http://www.w3.org/2000/svg"
 width="512.000000pt" height="512.000000pt" viewBox="0 0 512.000000 512.000000"
 preserveAspectRatio="xMidYMid meet">
<metadata>
Created by potrace 1.16, written by Peter Selinger 2001-2019
</metadata>
<g transform="translate(0.000000,512.000000) scale(0.100000,-0.100000)"
fill="#000000" stroke="none">
<path d="M3101 4744 c-46 -56 -65 -130 -58 -230 4 -73 2 -89 -19 -134 -13 -29
-24 -60 -24 -70 0 -11 14 -61 32 -112 28 -81 32 -107 32 -198 l1 -105 -91
-140 c-98 -151 -162 -262 -244 -426 -140 -278 -364 -514 -695 -732 -136 -89
-378 -211 -507 -256 -121 -42 -202 -57 -448 -81 -118 -11 -287 -30 -375 -42
-106 -14 -217 -22 -330 -22 -216 -1 -221 -4 -290 -140 -45 -87 -48 -153 -10
-208 29 -42 233 -205 375 -298 106 -69 294 -163 413 -205 63 -23 77 -31 71
-44 -18 -40 -43 -150 -43 -189 -1 -67 21 -107 81 -145 55 -35 228 -108 365
-152 356 -116 806 -147 1143 -79 117 24 333 100 468 164 67 32 122 56 122 52
-1 -14 -47 -59 -138 -136 -146 -123 -161 -151 -142 -257 25 -137 72 -202 158
-215 53 -8 312 10 447 31 334 53 608 195 878 455 152 146 256 270 369 440 283
426 428 927 428 1481 0 223 -13 312 -75 495 -120 362 -341 671 -570 799 -33
18 -125 52 -204 75 -179 51 -248 86 -332 170 -50 51 -78 92 -122 177 -37 72
-70 123 -96 146 -70 63 -239 131 -369 148 -186 24 -165 26 -201 -17z m284
-135 c59 -17 75 -27 95 -57 23 -33 25 -48 31 -186 4 -92 13 -176 23 -215 19
-70 65 -168 102 -218 l23 -31 -34 -26 c-38 -29 -48 -31 -92 -15 -26 9 -32 17
-38 55 -10 70 -51 180 -100 270 -38 71 -45 92 -45 140 0 40 -8 75 -30 124 -36
82 -42 180 -11 180 3 0 38 -9 76 -21z m-165 -318 c0 -58 5 -72 45 -140 47 -81
95 -198 95 -232 0 -18 -4 -21 -29 -16 -15 3 -51 9 -80 13 l-51 7 0 77 c0 73
-35 245 -58 286 -7 12 -2 33 17 74 l26 57 17 -31 c11 -20 17 -54 18 -95z m579
-100 c36 -36 94 -82 127 -101 l62 -35 -19 -37 c-21 -40 -36 -46 -139 -51 l-55
-2 -42 63 c-56 83 -84 174 -90 292 l-5 95 47 -79 c26 -43 77 -109 114 -145z
m546 -246 c237 -114 494 -519 582 -917 22 -101 24 -413 4 -578 -58 -478 -216
-881 -484 -1239 -89 -120 -296 -333 -403 -417 -222 -174 -454 -268 -766 -309
l-48 -6 14 38 c8 21 23 62 35 91 12 29 21 61 21 71 0 11 -29 56 -65 102 -36
46 -64 86 -63 90 6 16 305 374 337 403 82 75 220 241 302 364 193 290 322 626
375 977 26 167 26 539 1 674 -42 219 -112 376 -219 486 -37 38 -68 70 -68 71
0 1 25 4 56 7 30 3 66 13 79 21 21 14 28 14 79 -4 134 -46 261 -180 365 -387
44 -88 90 -105 127 -48 15 23 14 28 -9 79 -69 150 -179 302 -271 374 -48 37
-140 86 -198 106 -10 3 -18 10 -18 15 0 13 172 -34 235 -64z m-501 -218 c75
-68 92 -90 131 -170 134 -273 152 -723 45 -1152 -125 -504 -418 -940 -815
-1217 -192 -134 -528 -280 -759 -330 -118 -25 -445 -36 -607 -19 -190 20 -489
89 -489 114 0 5 26 51 58 103 56 92 57 93 97 94 71 0 238 30 262 45 29 19 31
65 3 90 -19 17 -25 17 -137 1 -169 -23 -165 -24 -191 29 -20 42 -21 45 -4 54
36 19 272 111 467 181 256 92 325 124 460 215 296 198 555 503 735 867 84 169
117 261 176 481 64 240 192 627 208 627 7 0 36 -7 64 -15 59 -18 70 -14 152
49 25 20 48 34 52 33 3 -1 45 -37 92 -80z m-581 62 c40 -6 76 -14 80 -19 5 -4
-23 -104 -61 -221 -39 -118 -89 -284 -112 -369 -79 -295 -155 -479 -285 -690
-219 -354 -539 -646 -825 -755 -36 -13 -182 -68 -325 -121 -143 -53 -300 -114
-349 -136 -109 -48 -245 -82 -289 -72 -126 26 -356 118 -489 194 -80 47 -228
150 -228 159 0 3 24 23 54 43 47 33 57 36 86 28 18 -5 91 -21 163 -36 99 -20
135 -23 153 -15 28 12 40 51 25 80 -12 22 -31 28 -192 61 -58 12 -111 25 -117
29 -7 4 -7 24 2 66 l12 60 84 12 c47 7 220 26 385 43 421 43 536 74 825 221
334 169 664 438 842 686 32 44 99 158 149 254 152 290 290 509 321 509 10 0
52 -5 91 -11z m-133 -3069 l42 -51 -37 -99 -38 -100 -74 0 -74 0 -15 35 c-8
20 -17 55 -20 79 l-6 43 83 72 c46 39 87 71 91 71 3 0 25 -23 48 -50z"/>
</g>
</svg>
